<svg width="1536" height="755" xmlns="http://www.w3.org/2000/svg"><g><path d="M-134,-107L-139,376L-111,123Z" fill="#fff7d9" stroke="#fff7d9"/><path d="M-134,-107L-111,123L104,144Z" fill="#fff8e6" stroke="#fff8e6"/><path d="M-134,-107L104,144L149,-128Z" fill="#fff4e9" stroke="#fff4e9"/><path d="M149,-128L104,144L352,143Z" fill="#fee7c4" stroke="#fee7c4"/><path d="M149,-128L352,143L369,-101Z" fill="#fee2c8" stroke="#fee2c8"/><path d="M149,-128L369,-101L621,-110Z" fill="#fedbbd" stroke="#fedbbd"/><path d="M149,-128L621,-110L886,-141Z" fill="#fecea9" stroke="#fecea9"/><path d="M369,-101L352,143L649,126Z" fill="#fed3a3" stroke="#fed3a3"/><path d="M369,-101L649,126L621,-110Z" fill="#fecfaa" stroke="#fecfaa"/><path d="M621,-110L649,126L886,-141Z" fill="#fdc198" stroke="#fdc198"/><path d="M886,-141L649,126L876,146Z" fill="#fab984" stroke="#fab984"/><path d="M886,-141L876,146L1109,-112Z" fill="#f4ae86" stroke="#f4ae86"/><path d="M886,-141L1109,-112L1400,-146Z" fill="#e6a280" stroke="#e6a280"/><path d="M1109,-112L876,146L1133,144Z" fill="#efa672" stroke="#efa672"/><path d="M1109,-112L1133,144L1365,137Z" fill="#da9b71" stroke="#da9b71"/><path d="M1109,-112L1365,137L1400,-146Z" fill="#ca9882" stroke="#ca9882"/><path d="M1400,-146L1365,137L1617,104Z" fill="#ac8c7a" stroke="#ac8c7a"/><path d="M1400,-146L1617,104L1617,-133Z" fill="#9e8883" stroke="#9e8883"/><path d="M1617,-133L1617,104L1893,-115Z" fill="#818084" stroke="#818084"/><path d="M1893,-115L1617,104L1894,143Z" fill="#807e79" stroke="#807e79"/><path d="M-111,123L-139,376L104,144Z" fill="#ffe2b6" stroke="#ffe2b6"/><path d="M104,144L-139,376L134,382Z" fill="#ffcd94" stroke="#ffcd94"/><path d="M104,144L134,382L352,143Z" fill="#fed092" stroke="#fed092"/><path d="M352,143L134,382L398,352Z" fill="#febc73" stroke="#febc73"/><path d="M352,143L398,352L649,126Z" fill="#febe75" stroke="#febe75"/><path d="M649,126L398,352L649,385Z" fill="#fea855" stroke="#fea855"/><path d="M649,126L649,385L876,146Z" fill="#fca857" stroke="#fca857"/><path d="M876,146L649,385L892,357Z" fill="#fa943b" stroke="#fa943b"/><path d="M876,146L892,357L1133,144Z" fill="#f39646" stroke="#f39646"/><path d="M1133,144L892,357L1117,397Z" fill="#ef802d" stroke="#ef802d"/><path d="M1133,144L1117,397L1378,400Z" fill="#d97328" stroke="#d97328"/><path d="M1133,144L1378,400L1365,137Z" fill="#ca7e3f" stroke="#ca7e3f"/><path d="M1365,137L1378,400L1615,359Z" fill="#ae672d" stroke="#ae672d"/><path d="M1365,137L1615,359L1617,104Z" fill="#a07448" stroke="#a07448"/><path d="M1617,104L1615,359L1894,143Z" fill="#816a48" stroke="#816a48"/><path d="M1894,143L1615,359L1883,386Z" fill="#805930" stroke="#805930"/><path d="M1894,143L1883,386L1895,1102Z" fill="#7e2b18" stroke="#7e2b18"/><path d="M-139,376L-114,1122L-101,851Z" fill="#9c8491" stroke="#9c8491"/><path d="M-139,376L-101,851L-105,646Z" fill="#dd9c90" stroke="#dd9c90"/><path d="M-139,376L-105,646L134,382Z" fill="#ffb186" stroke="#ffb186"/><path d="M134,382L-105,646L142,618Z" fill="#fb9c79" stroke="#fb9c79"/><path d="M134,382L142,618L394,630Z" fill="#fd9262" stroke="#fd9262"/><path d="M134,382L394,630L398,352Z" fill="#fe9c58" stroke="#fe9c58"/><path d="M398,352L394,630L624,611Z" fill="#fe8144" stroke="#fe8144"/><path d="M398,352L624,611L649,385Z" fill="#fe8a3b" stroke="#fe8a3b"/><path d="M649,385L624,611L865,627Z" fill="#fc6d2b" stroke="#fc6d2b"/><path d="M649,385L865,627L892,357Z" fill="#fa7522" stroke="#fa7522"/><path d="M892,357L865,627L1117,397Z" fill="#f46818" stroke="#f46818"/><path d="M1117,397L865,627L1128,613Z" fill="#ed5315" stroke="#ed5315"/><path d="M1117,397L1128,613L1378,400Z" fill="#d95513" stroke="#d95513"/><path d="M1378,400L1128,613L1377,634Z" fill="#c64214" stroke="#c64214"/><path d="M1378,400L1377,634L1628,643Z" fill="#a43615" stroke="#a43615"/><path d="M1378,400L1628,643L1615,359Z" fill="#9e4115" stroke="#9e4115"/><path d="M1615,359L1628,643L1883,386Z" fill="#813916" stroke="#813916"/><path d="M1883,386L1628,643L1851,646Z" fill="#782817" stroke="#782817"/><path d="M1883,386L1851,646L1866,883Z" fill="#571c18" stroke="#571c18"/><path d="M1883,386L1866,883L1895,1102Z" fill="#190518" stroke="#190518"/><path d="M-105,646L-101,851L142,618Z" fill="#bb8a84" stroke="#bb8a84"/><path d="M142,618L-101,851L146,871Z" fill="#9d7978" stroke="#9d7978"/><path d="M142,618L146,871L394,630Z" fill="#ba7962" stroke="#ba7962"/><path d="M394,630L146,871L388,892Z" fill="#956557" stroke="#956557"/><path d="M394,630L388,892L609,876Z" fill="#945845" stroke="#945845"/><path d="M394,630L609,876L624,611Z" fill="#ba613c" stroke="#ba613c"/><path d="M624,611L609,876L865,627Z" fill="#ba552c" stroke="#ba552c"/><path d="M865,627L609,876L871,893Z" fill="#914024" stroke="#914024"/><path d="M865,627L871,893L1137,865Z" fill="#8b3318" stroke="#8b3318"/><path d="M865,627L1137,865L1128,613Z" fill="#ad3a14" stroke="#ad3a14"/><path d="M1128,613L1137,865L1377,634Z" fill="#952f13" stroke="#952f13"/><path d="M1377,634L1137,865L1376,866Z" fill="#641d14" stroke="#641d14"/><path d="M1377,634L1376,866L1614,864Z" fill="#481315" stroke="#481315"/><path d="M1377,634L1614,864L1628,643Z" fill="#581a15" stroke="#581a15"/><path d="M1628,643L1614,864L1851,646Z" fill="#3a1016" stroke="#3a1016"/><path d="M1851,646L1614,864L1866,883Z" fill="#160417" stroke="#160417"/><path d="M-101,851L-114,1122L131,1127Z" fill="#7f7985" stroke="#7f7985"/><path d="M-101,851L131,1127L146,871Z" fill="#7f7379" stroke="#7f7379"/><path d="M146,871L131,1127L388,892Z" fill="#7f6862" stroke="#7f6862"/><path d="M388,892L131,1127L389,1131Z" fill="#7f6258" stroke="#7f6258"/><path d="M388,892L389,1131L609,876Z" fill="#7f5645" stroke="#7f5645"/><path d="M609,876L389,1131L640,1140Z" fill="#7f4f3c" stroke="#7f4f3c"/><path d="M609,876L640,1140L871,893Z" fill="#7d432b" stroke="#7d432b"/><path d="M871,893L640,1140L875,1145Z" fill="#7b3c23" stroke="#7b3c23"/><path d="M871,893L875,1145L1107,1129Z" fill="#752f18" stroke="#752f18"/><path d="M871,893L1107,1129L1137,865Z" fill="#702915" stroke="#702915"/><path d="M1137,865L1107,1129L1379,1123Z" fill="#591d13" stroke="#591d13"/><path d="M1137,865L1379,1123L1376,866Z" fill="#4a1814" stroke="#4a1814"/><path d="M1376,866L1379,1123L1614,864Z" fill="#2e0e15" stroke="#2e0e15"/><path d="M1614,864L1379,1123L1635,1145Z" fill="#1f0915" stroke="#1f0915"/><path d="M1614,864L1635,1145L1866,883Z" fill="#020016" stroke="#020016"/><path d="M1866,883L1635,1145L1895,1102Z" fill="#000017" stroke="#000017"/><path d="M-114,1122L640,1140L131,1127Z" fill="#7f6863" stroke="#7f6863"/><path d="M131,1127L640,1140L389,1131Z" fill="#7f5b4e" stroke="#7f5b4e"/><path d="M875,1145L1635,1145L1107,1129Z" fill="#5a1e13" stroke="#5a1e13"/><path d="M1107,1129L1635,1145L1379,1123Z" fill="#3c1314" stroke="#3c1314"/></g></svg>